<svg width="102" height="41" viewBox="0 0 102 41" fill="none" xmlns="http://www.w3.org/2000/svg" class="h-7 w-auto"><g clip-path="url(#clip0_1433_17303)"><path d="M0.611328 40.292L26.7865 0.860352H89.7556V29.9648H77.9998V8.1814H72.2594C72.067 9.35733 71.977 9.77439 71.6715 10.6587C71.229 11.8921 70.9277 12.3311 69.9349 13.5227C71.117 14.822 71.5805 15.5526 72.1642 17.0359C72.7449 18.4302 73.0911 20.1131 73.0911 21.5378C73.0911 23.6095 72.4624 25.375 71.1128 27.0903C70.4956 27.9087 69.7465 28.5913 68.8876 29.1192C67.8174 29.7536 66.8089 29.9648 64.8745 29.9648H35.2836V24.8304H24.5896L14.2869 40.292H0.611328ZM47.2319 23.4778H58.8057C60.4534 23.4778 61.5174 22.4357 61.5174 20.8218C61.5174 19.2079 60.4231 18.1125 58.9145 18.1125H47.2319V23.4778ZM29.7932 17.7864H35.2846V9.29461L29.7932 17.7864ZM47.212 11.6715H57.182C58.8182 11.6715 59.6489 11.0068 59.6489 9.69495C59.6489 8.00057 58.0692 7.74657 57.1276 7.74657H47.2109V11.6715H47.212Z" fill="white"></path><path d="M101.55 0.860352H91.0645V8.1814H101.55V0.860352Z" fill="white"></path><path d="M94.0472 28.1345C93.999 28.0895 93.9342 28.0498 93.8536 28.0153C94.0472 28.0017 94.2041 27.9338 94.3223 27.8105C94.4384 27.6882 94.4981 27.5471 94.4981 27.3829C94.4981 27.2669 94.4604 27.1561 94.3924 27.0547C94.3223 26.9492 94.2281 26.8781 94.1089 26.8363C93.9896 26.7934 93.7992 26.7746 93.5387 26.7746H92.7646V29.023H93.1276V28.0676H93.341C93.4686 28.0676 93.568 28.0927 93.6297 28.1439C93.727 28.2139 93.8515 28.3906 94.0105 28.6676L94.2093 29.0219H94.6529L94.3798 28.5829C94.2459 28.3728 94.1361 28.2254 94.0472 28.1345ZM93.5711 27.7571H93.1286V27.0767H93.5429C93.7166 27.0767 93.8379 27.0903 93.9038 27.1174C93.9687 27.1425 94.02 27.1823 94.0576 27.2324C94.0942 27.2868 94.1141 27.3453 94.1141 27.4112C94.1141 27.5167 94.0744 27.5983 93.998 27.661C93.9216 27.7237 93.7793 27.7571 93.5722 27.7571H93.5711ZM95.4898 26.8185C95.3047 26.484 95.0442 26.2269 94.7094 26.0481C94.3746 25.8673 94.0315 25.7764 93.682 25.7764C93.3326 25.7764 92.9905 25.8673 92.6558 26.0481C92.3199 26.2269 92.0626 26.4851 91.8722 26.8185C91.6849 27.153 91.5918 27.5021 91.5918 27.8679C91.5918 28.2338 91.6859 28.5735 91.8701 28.9059C92.0552 29.2373 92.3137 29.4923 92.6442 29.6763C92.9769 29.8602 93.3222 29.9512 93.682 29.9512C94.0419 29.9512 94.3893 29.8602 94.7209 29.6763C95.0525 29.4923 95.3109 29.2373 95.4951 28.9059C95.6792 28.5735 95.7702 28.2275 95.7702 27.8679C95.7702 27.5084 95.6771 27.153 95.4898 26.8185ZM95.1938 28.7334C95.04 29.0083 94.8255 29.2237 94.5462 29.3731C94.2721 29.5289 93.9823 29.6052 93.681 29.6052C93.3797 29.6052 93.0941 29.5289 92.8158 29.3731C92.5375 29.2226 92.3231 29.0083 92.1693 28.7334C92.0165 28.4554 91.937 28.169 91.937 27.869C91.937 27.569 92.0165 27.2732 92.1735 26.9962C92.3325 26.715 92.5469 26.5007 92.8263 26.3502C93.1046 26.1997 93.3912 26.1234 93.682 26.1234C93.9729 26.1234 94.2585 26.1997 94.5368 26.3502C94.8171 26.5007 95.0337 26.715 95.1896 26.9962C95.3455 27.2742 95.426 27.5659 95.426 27.869C95.426 28.1721 95.3496 28.4554 95.1959 28.7334H95.1938Z" fill="white"></path></g><defs><clipPath id="clip0_1433_17303"><rect width="102" height="41" fill="white"></rect></clipPath></defs></svg>