<?xml version="1.0" encoding="UTF-8" standalone="no"?>
<!DOCTYPE svg PUBLIC "-//W3C//DTD SVG 1.0//EN" "http://www.w3.org/TR/2001/REC-SVG-20010904/DTD/svg10.dtd">
<!-- Created with Inkscape (http://www.inkscape.org/) -->
<svg
   xmlns:svg="http://www.w3.org/2000/svg"
   xmlns="http://www.w3.org/2000/svg"
   version="1.0"
   width="200"
   height="220"
   id="svg4255">
  <defs
     id="defs4257" />
  <g
     transform="translate(-365.17624,-186.25296)"
     id="layer1">
    <g
       transform="matrix(2.0212685,0,0,2.0212685,-366.43138,-404.41552)"
       id="g4297">
      <path
         d="M 365.4067,355.40415 L 373.26045,355.40415 L 373.26045,357.0154 L 370.3742,357.0154 L 370.3742,365.0979 L 368.29295,365.0979 L 368.29295,357.0154 L 365.4067,357.0154 L 365.4067,355.40415 z"
         id="path3766"
         style="fill:#000000;fill-opacity:1;fill-rule:nonzero;stroke:none" />
      <path
         d="M 383.1967,355.40415 L 383.1967,361.47415 C 383.1967,364.0504 381.34295,365.3004 378.9942,365.3004 C 376.6442,365.3004 374.79045,364.0504 374.79045,361.47415 L 374.79045,355.40415 L 376.8717,355.40415 L 376.8717,360.6679 C 376.8717,362.30415 376.95295,363.79665 378.9942,363.79665 C 381.0342,363.79665 381.11545,362.30415 381.11545,360.6679 L 381.11545,355.40415 L 383.1967,355.40415 z M 377.1542,352.4504 L 378.5242,352.4504 L 378.5242,354.0479 L 377.1542,354.0479 L 377.1542,352.4504 z M 379.4642,352.4504 L 380.83295,352.4504 L 380.83295,354.0479 L 379.4642,354.0479 L 379.4642,352.4504 z"
         id="path3768"
         style="fill:#000000;fill-opacity:1;fill-rule:nonzero;stroke:none" />
      <path
         d="M 384.7092,355.40415 L 386.97795,355.40415 L 389.5017,363.04415 L 389.5292,363.04415 L 392.0667,355.40415 L 394.12045,355.40415 L 390.5492,365.0979 L 388.28045,365.0979 L 384.7092,355.40415 z"
         id="path3770"
         style="fill:#000000;fill-opacity:1;fill-rule:nonzero;stroke:none" />
      <path
         d="M 397.21795,360.72165 L 397.21795,365.0979 L 395.87545,365.0979 L 395.87545,355.40415 L 399.3392,355.40415 C 400.9642,355.40415 402.64295,355.91415 402.64295,357.83415 C 402.64295,359.00165 401.9442,359.90165 400.8167,360.17165 L 400.8167,360.1979 C 401.9842,360.4804 402.14545,361.09665 402.29295,362.18415 C 402.4417,363.1504 402.54795,364.1854 402.89795,365.0979 L 401.46045,365.0979 C 401.34045,364.52165 401.1792,363.8904 401.1117,363.3129 C 401.0042,362.43915 401.0042,361.6479 400.5617,361.16415 C 400.1717,360.72165 399.63545,360.7604 399.09795,360.72165 L 397.21795,360.72165 z M 397.1917,359.56665 L 399.4067,359.56665 C 400.8967,359.5004 401.23295,358.8279 401.23295,358.0629 C 401.23295,357.29665 400.8967,356.62665 399.4067,356.5579 L 397.1917,356.5579 L 397.1917,359.56665 z"
         id="path3772"
         style="fill:#000000;fill-opacity:1;fill-rule:nonzero;stroke:none" />
      <path
         d="M 404.84045,365.0979 L 404.84045,355.40415 L 406.11545,355.40415 L 406.11545,359.2579 L 406.14295,359.2579 C 406.62545,358.5054 407.35045,358.15665 408.3317,358.15665 C 410.09045,358.15665 410.64045,359.3254 410.64045,360.5329 L 410.64045,365.0979 L 409.36545,365.0979 L 409.36545,361.1104 C 409.36545,359.92915 409.0567,359.1629 407.8617,359.13665 C 407.35045,359.1229 406.57295,359.5129 406.33045,360.07665 C 406.03545,360.7754 406.11545,361.25915 406.11545,361.63415 L 406.11545,365.0979 L 404.84045,365.0979 z"
         id="path3774"
         style="fill:#000000;fill-opacity:1;fill-rule:nonzero;stroke:none" />
      <path
         d="M 413.68045,361.96915 C 413.5867,363.1504 414.07045,364.37415 415.37295,364.37415 C 416.3667,364.37415 416.8617,363.9829 417.01045,363.00415 L 418.3517,363.00415 C 418.1517,364.53415 416.9692,365.3004 415.35795,365.3004 C 413.1967,365.3004 412.33795,363.76915 412.33795,361.7829 C 412.33795,359.80915 413.33045,358.15665 415.46545,358.15665 C 417.48045,358.1979 418.43295,359.4729 418.43295,361.33915 L 418.43295,361.96915 L 413.68045,361.96915 z M 417.09045,361.08415 C 417.1167,359.9554 416.60795,359.0829 415.37295,359.0829 C 414.3117,359.0829 413.68045,359.98165 413.68045,361.08415 L 417.09045,361.08415 z"
         id="path3776"
         style="fill:#000000;fill-opacity:1;fill-rule:nonzero;stroke:none" />
      <path
         d="M 420.07795,355.75915 L 421.59545,355.75915 L 421.59545,357.14165 L 420.07795,357.14165 L 420.07795,355.75915 z"
         id="path3778"
         style="fill:#000000;fill-opacity:1;fill-rule:nonzero;stroke:none" />
      <path
         d="M 420.19795,358.3579 L 421.47295,358.3579 L 421.47295,365.0979 L 420.19795,365.0979 L 420.19795,358.3579 z"
         id="path3780"
         style="fill:#000000;fill-opacity:1;fill-rule:nonzero;stroke:none" />
      <path
         d="M 424.95045,359.35165 L 424.97795,359.35165 C 425.40795,358.5054 426.34795,358.15665 427.0192,358.15665 C 427.4892,358.15665 429.57045,358.2779 429.57045,360.43915 L 429.57045,365.0979 L 428.2942,365.0979 L 428.2942,360.8554 C 428.2942,359.74165 427.82545,359.13665 426.7492,359.13665 C 426.7492,359.13665 426.05295,359.09665 425.51545,359.6329 C 425.32795,359.82165 424.97795,360.11665 424.97795,361.4329 L 424.97795,365.0979 L 423.70295,365.0979 L 423.70295,358.3579 L 424.95045,358.3579 L 424.95045,359.35165 z"
         id="path3782"
         style="fill:#000000;fill-opacity:1;fill-rule:nonzero;stroke:none" />
      <path
         d="M 431.7142,355.40415 L 432.9892,355.40415 L 432.9892,365.0979 L 431.7142,365.0979 L 431.7142,355.40415 z"
         id="path3784"
         style="fill:#000000;fill-opacity:1;fill-rule:nonzero;stroke:none" />
      <path
         d="M 439.1692,360.93665 C 439.1692,359.7679 439.10295,359.0829 437.7467,359.0829 C 437.10295,359.0829 436.4992,359.45915 436.48545,360.1579 L 435.14295,360.1579 C 435.21045,358.6804 436.3642,358.15665 437.6942,358.15665 C 439.0767,358.15665 440.4467,358.5729 440.4467,360.45165 L 440.4467,363.6754 C 440.4467,363.9704 440.46045,364.53415 440.4992,365.0979 L 439.64045,365.0979 C 439.5192,365.0979 439.2917,365.1654 439.27795,365.0054 C 439.2517,364.6954 439.2242,364.4004 439.21045,364.09165 L 439.1842,364.09165 C 438.76795,364.93665 438.01545,365.3004 437.0892,365.3004 C 435.9217,365.3004 434.74045,364.6954 434.74045,363.3804 C 434.74045,361.48665 436.41795,360.93665 438.01545,360.93665 L 439.1692,360.93665 z M 437.8942,361.82165 C 437.11545,361.8629 436.08295,362.14415 436.08295,363.12415 C 436.08295,363.95665 436.6592,364.37415 437.4117,364.37415 C 438.91545,364.37415 439.1967,363.0704 439.1692,361.82165 L 437.8942,361.82165 z"
         id="path3786"
         style="fill:#000000;fill-opacity:1;fill-rule:nonzero;stroke:none" />
      <path
         d="M 443.7492,359.3904 L 443.77545,359.3904 C 444.20545,358.5429 445.14545,358.19415 445.8167,358.19415 C 446.2867,358.19415 448.36795,358.3154 448.36795,360.47665 L 448.36795,365.1354 L 447.0917,365.1354 L 447.0917,360.89165 C 447.0917,359.77915 446.6217,359.17415 445.54795,359.17415 C 445.54795,359.17415 444.8492,359.1329 444.31295,359.6704 C 444.12545,359.85915 443.77545,360.1554 443.77545,361.4704 L 443.77545,365.1354 L 442.4992,365.1354 L 442.4992,358.3954 L 443.7492,358.3954 L 443.7492,359.3904 z"
         id="path3788"
         style="fill:#000000;fill-opacity:1;fill-rule:nonzero;stroke:none" />
      <path
         d="M 455.16045,355.44165 L 456.4367,355.44165 L 456.4367,363.9404 C 456.4367,364.3429 456.4767,364.7454 456.5042,365.1354 L 455.2017,365.1354 L 455.16045,364.1279 L 455.16045,364.06165 L 455.1342,364.06165 C 454.67795,365.00165 453.7917,365.33665 452.8117,365.33665 C 450.81045,365.33665 450.01795,363.49665 450.01795,361.7654 C 450.01795,359.9404 450.94545,358.19415 453.04045,358.19415 C 453.8992,358.19415 454.7442,358.5029 455.1342,359.30915 L 455.16045,359.30915 L 455.16045,355.44165 z M 453.26795,364.45165 C 454.81295,364.45165 455.1742,363.01415 455.1742,361.75165 C 455.1742,360.52915 454.71795,359.0804 453.26795,359.0804 C 451.73795,359.0804 451.3617,360.4904 451.3617,361.75165 C 451.3617,363.01415 451.8317,364.45165 453.26795,364.45165"
         id="path3790"
         style="fill:#000000;fill-opacity:1;fill-rule:nonzero;stroke:none" />
      <path
         d="M 448.34295,351.5429 C 448.34295,353.43915 446.8042,354.97915 444.9067,354.97915 C 443.0092,354.97915 441.4717,353.43915 441.4717,351.5429 C 441.4717,349.6454 443.0092,348.1079 444.9067,348.1079 C 446.8042,348.1079 448.34295,349.6454 448.34295,351.5429 z"
         id="path3792"
         style="fill:none;stroke:#000000;stroke-width:0.50401515;stroke-linecap:butt;stroke-linejoin:miter;stroke-miterlimit:4;stroke-dasharray:none;stroke-opacity:1" />
      <path
         d="M 444.12795,351.67165 L 444.12795,353.5929 L 443.5392,353.5929 L 443.5392,349.3379 L 445.0592,349.3379 C 445.77295,349.3379 446.5092,349.5604 446.5092,350.4029 C 446.5092,350.91665 446.20295,351.31165 445.7067,351.42915 L 445.7067,351.44165 C 446.22045,351.5654 446.2917,351.83665 446.35545,352.3129 C 446.4217,352.7379 446.46795,353.19165 446.62045,353.5929 L 445.99045,353.5929 C 445.93795,353.33915 445.8667,353.06165 445.83795,352.80915 C 445.79045,352.42415 445.79045,352.0779 445.59545,351.8654 C 445.4242,351.67165 445.18795,351.68915 444.95295,351.67165 L 444.12795,351.67165 z M 444.11545,351.16415 L 445.0892,351.16415 C 445.74295,351.1354 445.89045,350.8404 445.89045,350.50415 C 445.89045,350.1679 445.74295,349.8729 445.0892,349.8429 L 444.11545,349.8429 L 444.11545,351.16415 z"
         id="path3794"
         style="fill:#000000;fill-opacity:1;fill-rule:nonzero;stroke:none" />
      <path
         d="M 436.2417,344.57165 L 432.6017,338.26915 C 429.10295,337.66165 425.47795,337.3329 421.81295,337.3329 C 416.6867,337.3329 411.7442,337.95915 407.00045,339.1804 C 402.3017,340.41165 397.30795,341.0679 392.2067,341.0679 C 390.3842,341.0679 388.6217,340.99165 386.87295,340.81165 L 406.98795,305.9579 L 419.15545,326.9829 C 414.96045,327.16915 410.9392,327.76665 407.00045,328.77665 C 404.1517,329.5104 401.22295,330.03165 398.21545,330.3279 L 394.5517,336.67165 C 398.82295,336.50665 403.01045,335.8629 407.00045,334.86415 C 411.74295,333.6354 416.6817,333.00415 421.80795,333.00415 C 424.52045,333.00415 427.24295,333.18665 429.86795,333.53415 L 426.0142,326.8579 L 416.0492,309.59915 L 407.00045,293.9304 L 377.3867,345.2204 C 382.11045,346.5104 387.07045,347.13415 392.20045,347.13415 C 397.30545,347.13415 402.3017,346.5104 407.00045,345.2204 C 411.74295,344.0479 416.6817,343.37415 421.80795,343.37415 C 426.91045,343.37415 431.87545,344.04665 436.6142,345.2204 L 436.2417,344.57165 z"
         id="path3796"
         style="fill:#006bad;fill-opacity:1;fill-rule:nonzero;stroke:none" />
      <path
         d="M 375.08795,390.96415 L 377.29295,390.96415 C 378.5142,390.90915 379.5717,391.36415 379.5717,392.80415 C 379.5717,394.1804 378.45045,394.6179 377.2392,394.6454 L 375.9992,394.6454 L 375.9992,397.5429 L 375.08795,397.5429 L 375.08795,390.96415 z M 377.43045,393.86165 C 377.5392,393.86165 378.6142,393.9154 378.6142,392.80415 C 378.6142,391.6929 377.5392,391.7479 377.43045,391.7479 L 375.9992,391.7479 L 375.9992,393.86165 L 377.43045,393.86165 z"
         id="path3798"
         style="fill:#000000;fill-opacity:1;fill-rule:nonzero;stroke:none" />
      <path
         d="M 381.65795,397.5429 L 380.7917,397.5429 L 380.7917,392.9679 L 381.65795,392.9679 L 381.65795,393.8529 L 381.6767,393.8529 C 381.8042,393.2229 382.3867,392.9054 383.01545,392.9054 C 383.12545,392.9054 383.2167,392.91415 383.3167,392.91415 L 383.3167,393.73415 C 383.19795,393.6879 383.0617,393.6879 382.94295,393.6879 C 381.8492,393.72415 381.65795,394.3079 381.65795,395.27415 L 381.65795,397.5429 z"
         id="path3800"
         style="fill:#000000;fill-opacity:1;fill-rule:nonzero;stroke:none" />
      <path
         d="M 384.9567,395.4204 C 384.89295,396.22165 385.22045,397.0504 386.10545,397.0504 C 386.7792,397.0504 387.1167,396.78665 387.2167,396.12165 L 388.12795,396.12165 C 387.99045,397.1604 387.1892,397.67915 386.09545,397.67915 C 384.6292,397.67915 384.04545,396.6404 384.04545,395.29165 C 384.04545,393.9529 384.72045,392.83165 386.1692,392.83165 C 387.53545,392.85915 388.18295,393.72415 388.18295,394.99165 L 388.18295,395.4204 L 384.9567,395.4204 z M 387.2717,394.8179 C 387.2892,394.0529 386.94295,393.4604 386.10545,393.4604 C 385.38545,393.4604 384.9567,394.07165 384.9567,394.8179 L 387.2717,394.8179 z"
         id="path3802"
         style="fill:#000000;fill-opacity:1;fill-rule:nonzero;stroke:none" />
      <path
         d="M 392.0917,394.4354 C 392.0467,393.86165 391.77295,393.4604 391.15295,393.4604 C 390.3242,393.4604 390.00545,394.1804 390.00545,395.2554 C 390.00545,396.3304 390.3242,397.0504 391.15295,397.0504 C 391.72795,397.0504 392.08295,396.6779 392.12795,396.02165 L 392.9942,396.02165 C 392.92045,397.0504 392.15545,397.67915 391.1442,397.67915 C 389.6767,397.67915 389.0942,396.6404 389.0942,395.29165 C 389.0942,393.9529 389.76795,392.83165 391.2167,392.83165 C 392.18295,392.83165 392.9117,393.44165 392.95795,394.4354 L 392.0917,394.4354 z"
         id="path3804"
         style="fill:#000000;fill-opacity:1;fill-rule:nonzero;stroke:none" />
      <path
         d="M 394.1417,390.96415 L 395.1717,390.96415 L 395.1717,391.9029 L 394.1417,391.9029 L 394.1417,390.96415 z M 394.2242,392.9679 L 395.09045,392.9679 L 395.09045,397.5429 L 394.2242,397.5429 L 394.2242,392.9679 z"
         id="path3806"
         style="fill:#000000;fill-opacity:1;fill-rule:nonzero;stroke:none" />
      <path
         d="M 398.28795,392.83165 C 399.1542,392.83165 400.1292,393.19665 400.06545,394.2354 L 399.1542,394.2354 C 399.19045,393.65165 398.7442,393.4604 398.24295,393.4604 C 397.77795,393.4604 397.4042,393.67915 397.4042,394.18915 C 397.4042,394.69915 398.18795,394.73665 398.51545,394.83665 C 399.29045,395.09165 400.1842,395.1829 400.1842,396.2129 C 400.1842,397.3329 399.09045,397.67915 398.1517,397.67915 C 397.1942,397.67915 396.39295,397.24165 396.4017,396.1854 L 397.31295,396.1854 C 397.3317,396.7504 397.7142,397.0504 398.24295,397.0504 C 398.75295,397.0504 399.27295,396.8504 399.27295,396.2579 C 399.27295,395.2379 396.49295,396.0029 396.49295,394.21665 C 396.49295,393.2604 397.4592,392.83165 398.28795,392.83165"
         id="path3808"
         style="fill:#000000;fill-opacity:1;fill-rule:nonzero;stroke:none" />
      <path
         d="M 402.03295,395.4204 C 401.9692,396.22165 402.29795,397.0504 403.1817,397.0504 C 403.85545,397.0504 404.19295,396.78665 404.29295,396.12165 L 405.2042,396.12165 C 405.06795,397.1604 404.26545,397.67915 403.17295,397.67915 C 401.70545,397.67915 401.1217,396.6404 401.1217,395.29165 C 401.1217,393.9529 401.7967,392.83165 403.24545,392.83165 C 404.6117,392.85915 405.2592,393.72415 405.2592,394.99165 L 405.2592,395.4204 L 402.03295,395.4204 z M 404.34795,394.8179 C 404.3667,394.0529 404.02045,393.4604 403.1817,393.4604 C 402.4617,393.4604 402.03295,394.07165 402.03295,394.8179 L 404.34795,394.8179 z"
         id="path3810"
         style="fill:#000000;fill-opacity:1;fill-rule:nonzero;stroke:none" />
      <path
         d="M 406.6542,390.96415 L 407.52045,390.96415 L 407.52045,397.5429 L 406.6542,397.5429 L 406.6542,390.96415 z"
         id="path3812"
         style="fill:#000000;fill-opacity:1;fill-rule:nonzero;stroke:none" />
      <path
         d="M 410.6817,399.2929 L 409.7967,399.2929 L 410.49045,397.52415 L 408.58545,392.9679 L 409.5517,392.9679 L 410.9817,396.57665 L 412.4392,392.9679 L 413.3692,392.9679 L 410.6817,399.2929 z"
         id="path3814"
         style="fill:#000000;fill-opacity:1;fill-rule:nonzero;stroke:none" />
      <path
         d="M 417.9167,394.57165 L 417.9167,397.5429 L 417.00545,397.5429 L 417.00545,390.96415 L 419.3567,390.96415 C 420.4592,390.96415 421.59795,391.30915 421.59795,392.6129 C 421.59795,393.4054 421.1242,394.01665 420.3592,394.1979 L 420.3592,394.21665 C 421.1517,394.4079 421.26045,394.8279 421.36045,395.5654 C 421.4617,396.22165 421.5342,396.9229 421.7717,397.5429 L 420.7967,397.5429 C 420.7142,397.1504 420.60545,396.7229 420.5592,396.3304 C 420.4867,395.73915 420.4867,395.2004 420.18545,394.8729 C 419.9217,394.57165 419.5567,394.59915 419.19295,394.57165 L 417.9167,394.57165 z M 417.8992,393.78915 L 419.4017,393.78915 C 420.4142,393.7429 420.6417,393.2879 420.6417,392.7679 C 420.6417,392.2479 420.4142,391.7929 419.4017,391.7479 L 417.8992,391.7479 L 417.8992,393.78915 z"
         id="path3816"
         style="fill:#000000;fill-opacity:1;fill-rule:nonzero;stroke:none" />
      <path
         d="M 423.14795,390.96415 L 424.17795,390.96415 L 424.17795,391.9029 L 423.14795,391.9029 L 423.14795,390.96415 z M 423.2292,392.9679 L 424.09545,392.9679 L 424.09545,397.5429 L 423.2292,397.5429 L 423.2292,392.9679 z"
         id="path3818"
         style="fill:#000000;fill-opacity:1;fill-rule:nonzero;stroke:none" />
      <path
         d="M 428.98795,392.9679 L 429.88045,392.9679 C 429.8542,393.24165 429.8267,393.5154 429.8267,393.78915 L 429.8267,397.0054 C 429.8267,398.68165 429.09795,399.3654 427.42045,399.3654 C 426.4367,399.3654 425.7342,398.94665 425.72545,397.88915 L 426.6367,397.88915 C 426.67295,398.49915 427.09295,398.73665 427.70295,398.73665 C 428.93295,398.73665 428.93295,397.7154 428.96045,396.68665 L 428.93295,396.68665 C 428.66045,397.2329 427.9942,397.46165 427.43045,397.46165 C 426.03545,397.46165 425.48045,396.47665 425.48045,395.19165 C 425.48045,393.8704 426.21795,392.83165 427.60295,392.83165 C 428.0492,392.83165 428.5417,393.01415 428.8242,393.4329 C 428.8417,393.45165 428.96045,393.7154 428.96045,393.65165 L 428.98795,392.9679 z M 427.67545,396.83165 C 428.6142,396.83165 428.96045,396.0304 428.96045,395.14665 C 428.96045,394.2629 428.6142,393.4604 427.67545,393.4604 C 426.6642,393.4604 426.39045,394.42665 426.39045,395.14665 C 426.39045,395.8654 426.6642,396.83165 427.67545,396.83165"
         id="path3820"
         style="fill:#000000;fill-opacity:1;fill-rule:nonzero;stroke:none" />
      <path
         d="M 431.4942,397.5429 L 431.4942,390.96415 L 432.36045,390.96415 L 432.36045,393.57915 L 432.37795,393.57915 C 432.7067,393.06915 433.19795,392.83165 433.86295,392.83165 C 435.05795,392.83165 435.43045,393.62415 435.43045,394.4454 L 435.43045,397.5429 L 434.56545,397.5429 L 434.56545,394.83665 C 434.56545,394.03415 434.35545,393.5154 433.5442,393.49665 C 433.19795,393.4879 432.6692,393.75165 432.50545,394.13415 C 432.30545,394.6079 432.36045,394.93665 432.36045,395.19165 L 432.36045,397.5429 L 431.4942,397.5429 z"
         id="path3822"
         style="fill:#000000;fill-opacity:1;fill-rule:nonzero;stroke:none" />
      <path
         d="M 437.19795,392.9679 L 437.19795,391.9929 L 438.0642,391.7204 L 438.0642,392.9679 L 439.12045,392.9404 L 439.12045,393.5879 L 438.0642,393.57915 L 438.0642,396.53165 C 438.0642,396.85915 438.3192,397.01415 438.6292,397.01415 C 438.76545,397.01415 438.94795,396.99665 439.0842,396.95915 L 439.0842,397.62415 C 438.8842,397.63415 438.69295,397.67915 438.49295,397.67915 C 438.28295,397.67915 438.1192,397.6704 437.9092,397.63415 C 437.77295,397.60665 437.5442,397.53415 437.3992,397.3329 C 437.2442,397.11415 437.19795,397.09665 437.19795,396.4854 L 437.19795,393.57915 L 436.4142,393.5879 L 436.4142,392.9404 L 437.19795,392.9679 z"
         id="path3824"
         style="fill:#000000;fill-opacity:1;fill-rule:nonzero;stroke:none" />
      <path
         d="M 440.1967,396.44915 L 441.2542,396.44915 L 441.2542,397.5429 L 440.1967,397.5429 L 440.1967,396.44915 z"
         id="path3826"
         style="fill:#000000;fill-opacity:1;fill-rule:nonzero;stroke:none" />
      <path
         d="M 365.29545,372.8629 L 457.5617,372.8629"
         id="path3828"
         style="fill:none;stroke:#006bad;stroke-width:1.54605877;stroke-linecap:butt;stroke-linejoin:miter;stroke-miterlimit:4;stroke-dasharray:none;stroke-opacity:1" />
    </g>
  </g>
</svg>
