<svg xmlns="http://www.w3.org/2000/svg" viewBox="139.02891 445.79197 109.39141000000001 46.67703">
  <path d="M 196.85371,464.67461 L 209.86988,464.67461 L 209.86988,467.34256 L 205.08932,467.34256 L 205.08932,480.73248 L 201.63427,480.73248 L 201.63427,467.34256 L 196.85371,467.34256" fill="#ffffff"/>
  <path d="M 220.14809,462.42996 L 220.14809,459.77871 L 222.408,459.77871 L 222.408,462.42996 L 220.14809,462.42996 z M 216.32364,462.42996 L 216.32364,459.77871 L 218.58355,459.77871 L 218.58355,462.42996 L 216.32364,462.42996 z M 226.31937,464.67461 L 226.31937,474.72818 C 226.31937,479.00026 223.25546,481.06667 219.36582,481.06667 C 215.47618,481.06667 212.39054,479.00026 212.39054,474.72818 L 212.39054,464.67461 L 215.84559,464.67461 L 215.84559,473.39142 C 215.84559,476.1095 215.97597,478.57695 219.36582,478.57695 C 222.73394,478.57695 222.88605,476.1095 222.88605,473.39142 L 222.88605,464.67461" fill="#ffffff"/>
  <path d="M 228.84003,464.67461 L 232.59929,464.67461 L 236.77142,477.3293 L 236.81488,477.3293 L 241.00874,464.67461 L 244.42032,464.67461 L 238.5098,480.73248 L 234.75054,480.73248" fill="#ffffff"/>
  <path d="M 185.81496,486.60867 L 183.16392,482.02468 C 180.62152,481.58466 177.99221,481.34516 175.31944,481.34516 C 171.60364,481.34516 167.99649,481.80189 164.56318,482.68749 C 161.15159,483.58424 157.50098,484.06325 153.80691,484.06325 C 152.48139,484.06325 151.19933,484.00755 149.91727,483.87387 L 164.54145,458.53664 L 173.38549,473.8203 C 170.34331,473.95397 167.43151,474.39399 164.56318,475.12364 C 162.47711,475.65835 160.34759,476.0371 158.1746,476.25432 L 155.50184,480.86615 C 158.6092,480.74362 161.65138,480.27575 164.56318,479.55167 C 167.99649,478.66049 171.60364,478.1982 175.31944,478.1982 C 177.29686,478.1982 179.27427,478.33187 181.1865,478.58252 L 178.38335,473.73118 L 171.12559,461.18231 L 164.56318,449.79197 L 143.02891,487.07653 C 146.46222,488.01784 150.06938,488.469 153.80691,488.469 C 157.50098,488.469 161.15159,488.01784 164.56318,487.07653 C 167.99649,486.22992 171.60364,485.73977 175.31944,485.73977 C 179.03525,485.73977 182.6424,486.22992 186.09744,487.07653" fill="#ffffff"/>
</svg>
